<svg version="1.1" id="Layer_1" xmlns="http://www.w3.org/2000/svg" xmlns:xlink="http://www.w3.org/1999/xlink" x="0px" y="0px"
	 width="100%" viewBox="0 0 1024 1024" enable-background="new 0 0 1024 1024" xml:space="preserve">
<path fill="#000000" opacity="1.000000" stroke="none" 
	d="
M342.011841,636.018066 
	C314.317291,608.298584 286.870514,580.833679 259.431091,553.361450 
	C254.809448,548.734314 254.816635,548.712097 259.474579,544.022583 
	C264.054413,539.411621 268.803650,534.956909 273.183411,530.163940 
	C275.754089,527.350708 277.392761,527.586426 279.994873,530.207642 
	C301.127441,551.495239 322.393616,572.650269 343.627075,593.837708 
	C344.788483,594.996582 346.021088,596.083984 347.170197,597.157715 
	C349.998779,596.270020 351.404297,594.073303 353.122406,592.353027 
	C411.411713,533.992065 469.668579,475.598694 527.923706,417.203613 
	C533.333313,411.781036 533.329163,411.745819 538.571655,416.989044 
	C620.109253,498.537323 701.618774,580.113831 783.256409,661.561890 
	C786.857788,665.154968 787.103271,667.249817 783.233582,670.616699 
	C778.342285,674.872375 773.817200,679.585754 769.434814,684.376587 
	C766.569641,687.508728 764.632690,687.143372 761.774109,684.261414 
	C738.071960,660.365723 714.221375,636.617188 690.441711,612.798279 
	C655.478149,577.777100 620.557007,542.713562 585.575378,507.710449 
	C569.438354,491.563385 553.203308,475.514282 537.005005,459.428497 
	C535.726990,458.159332 534.388245,456.951233 533.244934,455.872437 
	C530.857849,456.447784 529.864502,458.111389 528.604980,459.370209 
	C469.671204,518.272766 410.759338,577.197388 351.845825,636.120300 
	C347.009796,640.957153 347.012390,640.959717 342.011841,636.018066 
z"/>
<path fill="#000000" opacity="1.000000" stroke="none" 
	d="
M861.238159,410.420166 
	C880.055481,375.955444 927.105591,367.878265 958.138245,393.482361 
	C986.307922,416.724304 992.212158,455.034271 971.876831,483.362244 
	C962.619080,496.258545 950.460083,504.624481 934.328186,506.439362 
	C933.545715,506.527374 932.636169,506.428497 931.998291,507.593048 
	C932.393921,508.125946 932.789978,508.841187 933.350952,509.386749 
	C939.555359,515.421021 940.044678,514.461548 932.923828,521.582764 
	C929.153625,525.353088 925.180786,528.945618 921.672546,532.945618 
	C918.659241,536.381409 916.594543,536.344055 913.302856,533.025146 
	C883.851990,503.330048 854.239868,473.794769 824.659546,444.228088 
	C771.155640,390.748810 717.642090,337.279205 664.129028,283.809052 
	C659.405762,279.089569 659.513916,279.217255 664.016724,274.547974 
	C669.537720,268.822845 674.832275,262.879272 681.019653,256.167908 
	C740.071960,315.296967 797.899841,373.200012 856.250854,431.626923 
	C856.842957,423.934784 858.060852,417.118744 861.238159,410.420166 
M907.570129,409.915924 
	C894.417969,413.683563 885.298035,421.994781 881.485657,435.076050 
	C875.696960,454.938904 890.150574,476.628326 911.469727,480.968109 
	C933.268005,485.405365 952.959351,468.793335 952.973267,446.703552 
	C952.986816,425.241760 932.722107,405.540955 907.570129,409.915924 
z"/>
<path fill="#000000" opacity="1.000000" stroke="none" 
	d="
M186.126419,579.873230 
	C139.335403,533.110962 92.829849,486.563019 46.182438,440.157684 
	C42.786213,436.779083 42.424427,434.733887 46.149570,431.480652 
	C50.905594,427.327179 55.382587,422.795898 59.559765,418.057190 
	C62.643642,414.558624 64.679321,414.750793 67.905617,418.004547 
	C94.999504,445.328735 122.250641,472.497070 149.457718,499.709015 
	C204.107513,554.368652 258.760651,609.024902 313.403290,663.691711 
	C314.788757,665.077820 316.435486,666.283081 317.397247,668.813293 
	C310.981781,675.157043 304.516449,681.592224 297.998627,687.973755 
	C295.514404,690.406006 294.135345,687.932922 292.712128,686.515686 
	C278.193359,672.058350 263.705597,657.569885 249.224792,643.074463 
	C228.268768,622.097290 207.325653,601.107239 186.126419,579.873230 
z"/>
<path fill="#000000" opacity="1.000000" stroke="none" 
	d="
M859.265259,522.734619 
	C870.114075,533.591614 880.637329,544.276733 891.381531,554.734802 
	C894.366394,557.640198 894.401062,559.663025 891.339294,562.419800 
	C887.506104,565.871216 883.805786,569.515198 880.409058,573.392273 
	C877.657776,576.532593 875.634094,576.055298 873.183716,573.210266 
	C871.801514,571.605408 870.362427,569.923645 867.558960,568.776855 
	C864.890503,590.354980 854.045227,606.413696 835.103027,616.778137 
	C820.730713,624.642090 805.331482,626.034607 789.526001,623.036194 
	C761.256653,617.673096 738.501221,589.047607 737.522400,559.897644 
	C736.500732,529.471497 758.127686,497.723816 793.097656,494.188660 
	C792.228577,491.626587 790.273132,490.024994 788.459961,488.513794 
	C785.489929,486.038391 785.859985,484.109070 788.537354,481.651672 
	C792.461731,478.049652 796.281982,474.299072 799.816528,470.318726 
	C802.566956,467.221375 804.452515,467.790527 807.112061,470.477142 
	C824.342407,487.882965 841.704346,505.158661 859.265259,522.734619 
M834.518616,578.981628 
	C845.412903,561.633545 841.205872,541.786072 823.915833,528.960632 
	C811.795776,519.970215 797.017578,519.005310 784.710388,526.961914 
	C773.914368,533.941528 764.715820,546.492737 768.526367,563.179749 
	C772.040527,578.568787 781.273987,588.957642 796.753113,593.016907 
	C812.150757,597.054688 824.490295,591.945984 834.518616,578.981628 
z"/>
<path fill="#000000" opacity="1.000000" stroke="none" 
	d="
M135.481201,668.559692 
	C145.964569,653.050293 159.853638,643.615112 178.445602,642.189758 
	C192.986603,641.074951 205.706528,645.748108 216.357056,655.671509 
	C222.204788,661.119995 227.590027,667.066040 233.456879,672.492493 
	C236.474854,675.283997 235.989838,677.051331 233.303955,679.708191 
	C216.247314,696.580261 199.330505,713.593750 182.375015,730.567993 
	C181.096329,731.848022 179.875305,733.185608 178.143585,735.004883 
	C186.681183,740.473938 195.259262,741.181152 204.027756,737.774170 
	C217.658020,732.478210 225.550690,721.523254 231.368408,708.740723 
	C231.918137,707.532959 232.356796,706.274841 232.899628,705.063660 
	C233.020706,704.793396 233.363892,704.622803 234.025909,704.028137 
	C240.756500,709.561340 246.668396,716.022583 252.605423,722.439575 
	C253.870178,723.806580 253.089920,725.572327 252.592606,727.195007 
	C245.572983,750.100037 221.137787,767.289551 197.229706,768.548096 
	C162.865616,770.357056 130.375549,738.863281 126.903114,707.115295 
	C125.411217,693.475098 127.680603,680.562683 135.481201,668.559692 
M193.492569,674.765747 
	C180.922119,669.213379 169.596191,671.488831 161.955444,681.101807 
	C154.041153,691.058960 152.917343,706.296265 159.389038,714.885620 
	C171.731964,702.276978 184.087738,689.655273 196.700974,676.770508 
	C196.505569,676.314636 195.250504,675.784729 193.492569,674.765747 
z"/>
<path fill="#000000" opacity="1.000000" stroke="none" 
	d="
M214.554169,498.994141 
	C217.952057,489.433868 226.006058,484.210876 234.535629,485.701721 
	C243.081818,487.195435 249.383759,494.854004 249.366364,503.725098 
	C249.349335,512.398193 243.342285,519.313904 234.416168,520.936829 
	C222.192322,523.159302 211.629501,511.758240 214.554169,498.994141 
z"/>
</svg>